<?xml version="1.0" encoding="UTF-8"?>
<!DOCTYPE score-partwise PUBLIC "-//Recordare//DTD MusicXML 3.0 Partwise//EN" "http://www.musicxml.org/dtds/partwise.dtd">
<score-partwise>
  <work>
    <work-title>Kum Bah Yah</work-title>
    </work>
  <identification>
    <encoding>
      <software>MuseScore 2.0.2</software>
      <encoding-date>2016-03-01</encoding-date>
      <supports element="accidental" type="yes"/>
      <supports element="beam" type="yes"/>
      <supports element="print" attribute="new-page" type="yes" value="yes"/>
      <supports element="print" attribute="new-system" type="yes" value="yes"/>
      <supports element="stem" type="yes"/>
      </encoding>
    <source>http://api.musescore.com/score/1822606</source>
    </identification>
  <defaults>
    <scaling>
      <millimeters>7.05556</millimeters>
      <tenths>40</tenths>
      </scaling>
    <page-layout>
      <page-height>1683.36</page-height>
      <page-width>1190.88</page-width>
      <page-margins type="even">
        <left-margin>56.6929</left-margin>
        <right-margin>56.6929</right-margin>
        <top-margin>56.6929</top-margin>
        <bottom-margin>113.386</bottom-margin>
        </page-margins>
      <page-margins type="odd">
        <left-margin>56.6929</left-margin>
        <right-margin>56.6929</right-margin>
        <top-margin>56.6929</top-margin>
        <bottom-margin>113.386</bottom-margin>
        </page-margins>
      </page-layout>
    <word-font font-family="FreeSerif" font-size="10"/>
    <lyric-font font-family="FreeSerif" font-size="11"/>
    </defaults>
  <credit page="1">
    <credit-words default-x="595.44" default-y="1626.67" justify="center" valign="top" font-size="24">Kum Bah Yah</credit-words>
    </credit>
  <part-list>
    <score-part id="P1">
      <part-name>Piano</part-name>
      <part-abbreviation>Pno.</part-abbreviation>
      <score-instrument id="P1-I1">
        <instrument-name>Piano</instrument-name>
        </score-instrument>
      <midi-device id="P1-I1" port="1"></midi-device>
      <midi-instrument id="P1-I1">
        <midi-channel>1</midi-channel>
        <midi-program>1</midi-program>
        <volume>78.7402</volume>
        <pan>0</pan>
        </midi-instrument>
      </score-part>
    </part-list>
  <part id="P1">
    <measure number="0" implicit="yes" width="224.80">
      <print>
        <system-layout>
          <system-margins>
            <left-margin>0.00</left-margin>
            <right-margin>0.00</right-margin>
            </system-margins>
          <top-system-distance>170.00</top-system-distance>
          </system-layout>
        </print>
      <attributes>
        <divisions>4</divisions>
        <key>
          <fifths>0</fifths>
          </key>
        <time>
          <beats>3</beats>
          <beat-type>4</beat-type>
          </time>
        <clef>
          <sign>G</sign>
          <line>2</line>
          </clef>
        </attributes>
      <note default-x="91.04" default-y="-50.00">
        <pitch>
          <step>C</step>
          <octave>4</octave>
          </pitch>
        <duration>2</duration>
        <voice>1</voice>
        <type>eighth</type>
        <stem>up</stem>
        <beam number="1">begin</beam>
        <lyric number="1">
          <syllabic>single</syllabic>
          <text>1.Kum</text>
          </lyric>
        <lyric number="2">
          <syllabic>begin</syllabic>
          <text>2.Some</text>
          </lyric>
        <lyric number="3">
          <syllabic>begin</syllabic>
          <text>3.Some</text>
          </lyric>
        <lyric number="4">
          <syllabic>begin</syllabic>
          <text>4.Some</text>
          </lyric>
        </note>
      <note default-x="158.08" default-y="-40.00">
        <pitch>
          <step>E</step>
          <octave>4</octave>
          </pitch>
        <duration>2</duration>
        <voice>1</voice>
        <type>eighth</type>
        <stem>up</stem>
        <beam number="1">end</beam>
        <lyric number="1">
          <syllabic>single</syllabic>
          <text>bah</text>
          </lyric>
        <lyric number="2">
          <syllabic>end</syllabic>
          <text>one's</text>
          </lyric>
        <lyric number="3">
          <syllabic>end</syllabic>
          <text>one's</text>
          </lyric>
        <lyric number="4">
          <syllabic>end</syllabic>
          <text>one's</text>
          </lyric>
        </note>
      <backup>
        <duration>4</duration>
        </backup>
      <note default-x="91.04" default-y="-50.00">
        <pitch>
          <step>C</step>
          <octave>4</octave>
          </pitch>
        <duration>2</duration>
        <voice>2</voice>
        <type>eighth</type>
        <stem>down</stem>
        <beam number="1">begin</beam>
        </note>
      <note default-x="158.08" default-y="-50.00">
        <pitch>
          <step>C</step>
          <octave>4</octave>
          </pitch>
        <duration>2</duration>
        <voice>2</voice>
        <type>eighth</type>
        <stem>down</stem>
        <beam number="1">end</beam>
        </note>
      </measure>
    <measure number="1" width="306.99">
      <note default-x="24.34" default-y="-30.00">
        <pitch>
          <step>G</step>
          <octave>4</octave>
          </pitch>
        <duration>3</duration>
        <voice>1</voice>
        <type>eighth</type>
        <dot/>
        <stem>up</stem>
        <beam number="1">begin</beam>
        <lyric number="1">
          <syllabic>single</syllabic>
          <text>yah,</text>
          </lyric>
        <lyric number="2">
          <syllabic>begin</syllabic>
          <text>cry</text>
          </lyric>
        <lyric number="3">
          <syllabic>begin</syllabic>
          <text>sing</text>
          </lyric>
        <lyric number="4">
          <syllabic>begin</syllabic>
          <text>pray</text>
          </lyric>
        </note>
      <note default-x="87.71" default-y="-30.00">
        <pitch>
          <step>G</step>
          <octave>4</octave>
          </pitch>
        <duration>1</duration>
        <voice>1</voice>
        <type>16th</type>
        <stem>up</stem>
        <beam number="1">end</beam>
        <beam number="2">backward hook</beam>
        <lyric number="1">
          <syllabic>single</syllabic>
          <text>my</text>
          </lyric>
        <lyric number="2">
          <syllabic>end</syllabic>
          <text>ing,</text>
          </lyric>
        <lyric number="3">
          <syllabic>end</syllabic>
          <text>ing,</text>
          </lyric>
        <lyric number="4">
          <syllabic>end</syllabic>
          <text>ing,</text>
          </lyric>
        </note>
      <note default-x="129.99" default-y="-30.00">
        <pitch>
          <step>G</step>
          <octave>4</octave>
          </pitch>
        <duration>4</duration>
        <voice>1</voice>
        <type>quarter</type>
        <stem>up</stem>
        <lyric number="1">
          <syllabic>single</syllabic>
          <text>Lord,</text>
          </lyric>
        <lyric number="2">
          <syllabic>single</syllabic>
          <text>Lord,</text>
          </lyric>
        <lyric number="3">
          <syllabic>single</syllabic>
          <text>Lord,</text>
          </lyric>
        <lyric number="4">
          <syllabic>single</syllabic>
          <text>Lord,</text>
          </lyric>
        </note>
      <note default-x="201.45" default-y="-25.00">
        <pitch>
          <step>A</step>
          <octave>4</octave>
          </pitch>
        <duration>2</duration>
        <voice>1</voice>
        <type>eighth</type>
        <stem>up</stem>
        <beam number="1">begin</beam>
        <lyric number="1">
          <syllabic>single</syllabic>
          <text>Kum</text>
          </lyric>
        <lyric number="2">
          <syllabic>single</syllabic>
          <text>Kum</text>
          </lyric>
        <lyric number="3">
          <syllabic>single</syllabic>
          <text>Kum</text>
          </lyric>
        <lyric number="4">
          <syllabic>single</syllabic>
          <text>Kum</text>
          </lyric>
        </note>
      <note default-x="253.42" default-y="-25.00">
        <pitch>
          <step>A</step>
          <octave>4</octave>
          </pitch>
        <duration>2</duration>
        <voice>1</voice>
        <type>eighth</type>
        <stem>up</stem>
        <beam number="1">end</beam>
        <lyric number="1">
          <syllabic>single</syllabic>
          <text>bah</text>
          </lyric>
        <lyric number="2">
          <syllabic>single</syllabic>
          <text>bah</text>
          </lyric>
        <lyric number="3">
          <syllabic>single</syllabic>
          <text>bah</text>
          </lyric>
        <lyric number="4">
          <syllabic>single</syllabic>
          <text>bah</text>
          </lyric>
        </note>
      <backup>
        <duration>12</duration>
        </backup>
      <note default-x="24.34" default-y="-40.00">
        <pitch>
          <step>E</step>
          <octave>4</octave>
          </pitch>
        <duration>3</duration>
        <voice>2</voice>
        <type>eighth</type>
        <dot/>
        <stem>down</stem>
        <beam number="1">begin</beam>
        </note>
      <note default-x="87.71" default-y="-40.00">
        <pitch>
          <step>E</step>
          <octave>4</octave>
          </pitch>
        <duration>1</duration>
        <voice>2</voice>
        <type>16th</type>
        <stem>down</stem>
        <beam number="1">end</beam>
        <beam number="2">backward hook</beam>
        </note>
      <note default-x="129.99" default-y="-40.00">
        <pitch>
          <step>E</step>
          <octave>4</octave>
          </pitch>
        <duration>4</duration>
        <voice>2</voice>
        <type>quarter</type>
        <stem>down</stem>
        </note>
      <note default-x="201.45" default-y="-35.00">
        <pitch>
          <step>F</step>
          <octave>4</octave>
          </pitch>
        <duration>2</duration>
        <voice>2</voice>
        <type>eighth</type>
        <stem>down</stem>
        <beam number="1">begin</beam>
        </note>
      <note default-x="253.42" default-y="-35.00">
        <pitch>
          <step>F</step>
          <octave>4</octave>
          </pitch>
        <duration>2</duration>
        <voice>2</voice>
        <type>eighth</type>
        <stem>down</stem>
        <beam number="1">end</beam>
        </note>
      </measure>
    <measure number="2" width="238.70">
      <note default-x="20.87" default-y="-30.00">
        <pitch>
          <step>G</step>
          <octave>4</octave>
          </pitch>
        <duration>8</duration>
        <voice>1</voice>
        <type>half</type>
        <stem>up</stem>
        <lyric number="1">
          <syllabic>single</syllabic>
          <text>yah!</text>
          </lyric>
        <lyric number="2">
          <syllabic>single</syllabic>
          <text>yah!</text>
          </lyric>
        <lyric number="3">
          <syllabic>single</syllabic>
          <text>yah!</text>
          </lyric>
        <lyric number="4">
          <syllabic>single</syllabic>
          <text>yah!</text>
          </lyric>
        </note>
      <note default-x="134.30" default-y="-50.00">
        <pitch>
          <step>C</step>
          <octave>4</octave>
          </pitch>
        <duration>2</duration>
        <voice>1</voice>
        <type>eighth</type>
        <stem>up</stem>
        <beam number="1">begin</beam>
        <lyric number="1">
          <syllabic>single</syllabic>
          <text>Kum</text>
          </lyric>
        <lyric number="2">
          <syllabic>begin</syllabic>
          <text>Some</text>
          </lyric>
        <lyric number="3">
          <syllabic>begin</syllabic>
          <text>Some</text>
          </lyric>
        <lyric number="4">
          <syllabic>begin</syllabic>
          <text>Some</text>
          </lyric>
        </note>
      <note default-x="185.70" default-y="-40.00">
        <pitch>
          <step>E</step>
          <octave>4</octave>
          </pitch>
        <duration>2</duration>
        <voice>1</voice>
        <type>eighth</type>
        <stem>up</stem>
        <beam number="1">end</beam>
        <lyric number="1">
          <syllabic>single</syllabic>
          <text>bah</text>
          </lyric>
        <lyric number="2">
          <syllabic>end</syllabic>
          <text>one's</text>
          </lyric>
        <lyric number="3">
          <syllabic>end</syllabic>
          <text>one's</text>
          </lyric>
        <lyric number="4">
          <syllabic>end</syllabic>
          <text>one's</text>
          </lyric>
        </note>
      <backup>
        <duration>12</duration>
        </backup>
      <note default-x="20.87" default-y="-40.00">
        <pitch>
          <step>E</step>
          <octave>4</octave>
          </pitch>
        <duration>8</duration>
        <voice>2</voice>
        <type>half</type>
        <stem>down</stem>
        </note>
      <note default-x="134.30" default-y="-50.00">
        <pitch>
          <step>C</step>
          <octave>4</octave>
          </pitch>
        <duration>2</duration>
        <voice>2</voice>
        <type>eighth</type>
        <stem>down</stem>
        <beam number="1">begin</beam>
        </note>
      <note default-x="185.70" default-y="-50.00">
        <pitch>
          <step>C</step>
          <octave>4</octave>
          </pitch>
        <duration>2</duration>
        <voice>2</voice>
        <type>eighth</type>
        <stem>down</stem>
        <beam number="1">end</beam>
        </note>
      </measure>
    <measure number="3" width="306.99">
      <note default-x="24.34" default-y="-30.00">
        <pitch>
          <step>G</step>
          <octave>4</octave>
          </pitch>
        <duration>3</duration>
        <voice>1</voice>
        <type>eighth</type>
        <dot/>
        <stem>up</stem>
        <beam number="1">begin</beam>
        <lyric number="1">
          <syllabic>single</syllabic>
          <text>yah,</text>
          </lyric>
        <lyric number="2">
          <syllabic>begin</syllabic>
          <text>cry</text>
          </lyric>
        <lyric number="3">
          <syllabic>begin</syllabic>
          <text>sing</text>
          </lyric>
        <lyric number="4">
          <syllabic>begin</syllabic>
          <text>pray</text>
          </lyric>
        </note>
      <note default-x="87.71" default-y="-30.00">
        <pitch>
          <step>G</step>
          <octave>4</octave>
          </pitch>
        <duration>1</duration>
        <voice>1</voice>
        <type>16th</type>
        <stem>up</stem>
        <beam number="1">end</beam>
        <beam number="2">backward hook</beam>
        <lyric number="1">
          <syllabic>single</syllabic>
          <text>my</text>
          </lyric>
        <lyric number="2">
          <syllabic>end</syllabic>
          <text>ing,</text>
          </lyric>
        <lyric number="3">
          <syllabic>end</syllabic>
          <text>ing,</text>
          </lyric>
        <lyric number="4">
          <syllabic>end</syllabic>
          <text>ing,</text>
          </lyric>
        </note>
      <note default-x="129.99" default-y="-30.00">
        <pitch>
          <step>G</step>
          <octave>4</octave>
          </pitch>
        <duration>4</duration>
        <voice>1</voice>
        <type>quarter</type>
        <stem>up</stem>
        <lyric number="1">
          <syllabic>single</syllabic>
          <text>Lord,</text>
          </lyric>
        <lyric number="2">
          <syllabic>single</syllabic>
          <text>Lord,</text>
          </lyric>
        <lyric number="3">
          <syllabic>single</syllabic>
          <text>Lord</text>
          </lyric>
        <lyric number="4">
          <syllabic>single</syllabic>
          <text>Lord,</text>
          </lyric>
        </note>
      <note default-x="201.45" default-y="-35.00">
        <pitch>
          <step>F</step>
          <octave>4</octave>
          </pitch>
        <duration>2</duration>
        <voice>1</voice>
        <type>eighth</type>
        <stem>up</stem>
        <beam number="1">begin</beam>
        <lyric number="1">
          <syllabic>single</syllabic>
          <text>Kum</text>
          </lyric>
        <lyric number="2">
          <syllabic>single</syllabic>
          <text>Kum</text>
          </lyric>
        <lyric number="3">
          <syllabic>single</syllabic>
          <text>Kum</text>
          </lyric>
        <lyric number="4">
          <syllabic>single</syllabic>
          <text>Kum</text>
          </lyric>
        </note>
      <note default-x="253.42" default-y="-40.00">
        <pitch>
          <step>E</step>
          <octave>4</octave>
          </pitch>
        <duration>2</duration>
        <voice>1</voice>
        <type>eighth</type>
        <stem>up</stem>
        <beam number="1">end</beam>
        <lyric number="1">
          <syllabic>single</syllabic>
          <text>bah</text>
          </lyric>
        <lyric number="2">
          <syllabic>single</syllabic>
          <text>bah</text>
          </lyric>
        <lyric number="3">
          <syllabic>single</syllabic>
          <text>bah</text>
          </lyric>
        <lyric number="4">
          <syllabic>single</syllabic>
          <text>bah</text>
          </lyric>
        </note>
      <backup>
        <duration>12</duration>
        </backup>
      <note default-x="24.34" default-y="-40.00">
        <pitch>
          <step>E</step>
          <octave>4</octave>
          </pitch>
        <duration>3</duration>
        <voice>2</voice>
        <type>eighth</type>
        <dot/>
        <stem>down</stem>
        <beam number="1">begin</beam>
        </note>
      <note default-x="87.71" default-y="-40.00">
        <pitch>
          <step>E</step>
          <octave>4</octave>
          </pitch>
        <duration>1</duration>
        <voice>2</voice>
        <type>16th</type>
        <stem>down</stem>
        <beam number="1">end</beam>
        <beam number="2">backward hook</beam>
        </note>
      <note default-x="129.99" default-y="-40.00">
        <pitch>
          <step>E</step>
          <octave>4</octave>
          </pitch>
        <duration>4</duration>
        <voice>2</voice>
        <type>quarter</type>
        <stem>down</stem>
        </note>
      <note default-x="201.45" default-y="-45.00">
        <pitch>
          <step>D</step>
          <octave>4</octave>
          </pitch>
        <duration>2</duration>
        <voice>2</voice>
        <type>eighth</type>
        <stem>down</stem>
        <beam number="1">begin</beam>
        </note>
      <note default-x="253.42" default-y="-50.00">
        <pitch>
          <step>C</step>
          <octave>4</octave>
          </pitch>
        <duration>2</duration>
        <voice>2</voice>
        <type>eighth</type>
        <stem>down</stem>
        <beam number="1">end</beam>
        </note>
      </measure>
    <measure number="4" width="254.55">
      <print new-system="yes">
        <system-layout>
          <system-margins>
            <left-margin>0.00</left-margin>
            <right-margin>0.00</right-margin>
            </system-margins>
          <system-distance>222.89</system-distance>
          </system-layout>
        </print>
      <note default-x="57.98" default-y="-45.00">
        <pitch>
          <step>D</step>
          <octave>4</octave>
          </pitch>
        <duration>8</duration>
        <voice>1</voice>
        <type>half</type>
        <stem>up</stem>
        <lyric number="1">
          <syllabic>single</syllabic>
          <text>yah!</text>
          </lyric>
        <lyric number="2">
          <syllabic>single</syllabic>
          <text>yah!</text>
          </lyric>
        <lyric number="3">
          <syllabic>single</syllabic>
          <text>yah!</text>
          </lyric>
        <lyric number="4">
          <syllabic>single</syllabic>
          <text>yah!</text>
          </lyric>
        </note>
      <note default-x="158.95" default-y="-50.00">
        <pitch>
          <step>C</step>
          <octave>4</octave>
          </pitch>
        <duration>2</duration>
        <voice>1</voice>
        <type>eighth</type>
        <stem>up</stem>
        <beam number="1">begin</beam>
        <lyric number="1">
          <syllabic>single</syllabic>
          <text>Kum</text>
          </lyric>
        <lyric number="2">
          <syllabic>begin</syllabic>
          <text>Some</text>
          </lyric>
        <lyric number="3">
          <syllabic>begin</syllabic>
          <text>Some</text>
          </lyric>
        <lyric number="4">
          <syllabic>begin</syllabic>
          <text>Some</text>
          </lyric>
        </note>
      <note default-x="207.21" default-y="-40.00">
        <pitch>
          <step>E</step>
          <octave>4</octave>
          </pitch>
        <duration>2</duration>
        <voice>1</voice>
        <type>eighth</type>
        <stem>up</stem>
        <beam number="1">end</beam>
        <lyric number="1">
          <syllabic>single</syllabic>
          <text>bah</text>
          </lyric>
        <lyric number="2">
          <syllabic>end</syllabic>
          <text>one's</text>
          </lyric>
        <lyric number="3">
          <syllabic>end</syllabic>
          <text>one's</text>
          </lyric>
        <lyric number="4">
          <syllabic>end</syllabic>
          <text>one's</text>
          </lyric>
        </note>
      <backup>
        <duration>12</duration>
        </backup>
      <note default-x="57.98" default-y="-55.00">
        <pitch>
          <step>B</step>
          <octave>3</octave>
          </pitch>
        <duration>8</duration>
        <voice>2</voice>
        <type>half</type>
        <stem>down</stem>
        </note>
      <note default-x="158.95" default-y="-50.00">
        <pitch>
          <step>C</step>
          <octave>4</octave>
          </pitch>
        <duration>2</duration>
        <voice>2</voice>
        <type>eighth</type>
        <stem>down</stem>
        <beam number="1">begin</beam>
        </note>
      <note default-x="207.21" default-y="-50.00">
        <pitch>
          <step>C</step>
          <octave>4</octave>
          </pitch>
        <duration>2</duration>
        <voice>2</voice>
        <type>eighth</type>
        <stem>down</stem>
        <beam number="1">end</beam>
        </note>
      </measure>
    <measure number="5" width="285.73">
      <note default-x="24.34" default-y="-30.00">
        <pitch>
          <step>G</step>
          <octave>4</octave>
          </pitch>
        <duration>3</duration>
        <voice>1</voice>
        <type>eighth</type>
        <dot/>
        <stem>up</stem>
        <beam number="1">begin</beam>
        <lyric number="1">
          <syllabic>single</syllabic>
          <text>yah,</text>
          </lyric>
        <lyric number="2">
          <syllabic>begin</syllabic>
          <text>cry</text>
          </lyric>
        <lyric number="3">
          <syllabic>begin</syllabic>
          <text>sing</text>
          </lyric>
        <lyric number="4">
          <syllabic>begin</syllabic>
          <text>pray</text>
          </lyric>
        </note>
      <note default-x="82.07" default-y="-30.00">
        <pitch>
          <step>G</step>
          <octave>4</octave>
          </pitch>
        <duration>1</duration>
        <voice>1</voice>
        <type>16th</type>
        <stem>up</stem>
        <beam number="1">end</beam>
        <beam number="2">backward hook</beam>
        <lyric number="1">
          <syllabic>single</syllabic>
          <text>my</text>
          </lyric>
        <lyric number="2">
          <syllabic>end</syllabic>
          <text>ing,</text>
          </lyric>
        <lyric number="3">
          <syllabic>end</syllabic>
          <text>ing,</text>
          </lyric>
        <lyric number="4">
          <syllabic>end</syllabic>
          <text>ing,</text>
          </lyric>
        </note>
      <note default-x="124.35" default-y="-30.00">
        <pitch>
          <step>G</step>
          <octave>4</octave>
          </pitch>
        <duration>4</duration>
        <voice>1</voice>
        <type>quarter</type>
        <stem>up</stem>
        <lyric number="1">
          <syllabic>single</syllabic>
          <text>Lord,</text>
          </lyric>
        <lyric number="2">
          <syllabic>single</syllabic>
          <text>Lord,</text>
          </lyric>
        <lyric number="3">
          <syllabic>single</syllabic>
          <text>Lord,</text>
          </lyric>
        <lyric number="4">
          <syllabic>single</syllabic>
          <text>Lord,</text>
          </lyric>
        </note>
      <note default-x="189.44" default-y="-25.00">
        <pitch>
          <step>A</step>
          <octave>4</octave>
          </pitch>
        <duration>2</duration>
        <voice>1</voice>
        <type>eighth</type>
        <stem>up</stem>
        <beam number="1">begin</beam>
        <lyric number="1">
          <syllabic>single</syllabic>
          <text>Kum</text>
          </lyric>
        <lyric number="2">
          <syllabic>single</syllabic>
          <text>Kum</text>
          </lyric>
        <lyric number="3">
          <syllabic>single</syllabic>
          <text>Kum</text>
          </lyric>
        <lyric number="4">
          <syllabic>single</syllabic>
          <text>Kum</text>
          </lyric>
        </note>
      <note default-x="236.79" default-y="-25.00">
        <pitch>
          <step>A</step>
          <octave>4</octave>
          </pitch>
        <duration>2</duration>
        <voice>1</voice>
        <type>eighth</type>
        <stem>up</stem>
        <beam number="1">end</beam>
        <lyric number="1">
          <syllabic>single</syllabic>
          <text>bah</text>
          </lyric>
        <lyric number="2">
          <syllabic>single</syllabic>
          <text>bah</text>
          </lyric>
        <lyric number="3">
          <syllabic>single</syllabic>
          <text>bah</text>
          </lyric>
        <lyric number="4">
          <syllabic>single</syllabic>
          <text>bah</text>
          </lyric>
        </note>
      <backup>
        <duration>12</duration>
        </backup>
      <note default-x="24.34" default-y="-40.00">
        <pitch>
          <step>E</step>
          <octave>4</octave>
          </pitch>
        <duration>3</duration>
        <voice>2</voice>
        <type>eighth</type>
        <dot/>
        <stem>down</stem>
        <beam number="1">begin</beam>
        </note>
      <note default-x="82.07" default-y="-40.00">
        <pitch>
          <step>E</step>
          <octave>4</octave>
          </pitch>
        <duration>1</duration>
        <voice>2</voice>
        <type>16th</type>
        <stem>down</stem>
        <beam number="1">end</beam>
        <beam number="2">backward hook</beam>
        </note>
      <note default-x="124.35" default-y="-40.00">
        <pitch>
          <step>E</step>
          <octave>4</octave>
          </pitch>
        <duration>4</duration>
        <voice>2</voice>
        <type>quarter</type>
        <stem>down</stem>
        </note>
      <note default-x="189.44" default-y="-35.00">
        <pitch>
          <step>F</step>
          <octave>4</octave>
          </pitch>
        <duration>2</duration>
        <voice>2</voice>
        <type>eighth</type>
        <stem>down</stem>
        <beam number="1">begin</beam>
        </note>
      <note default-x="236.79" default-y="-35.00">
        <pitch>
          <step>F</step>
          <octave>4</octave>
          </pitch>
        <duration>2</duration>
        <voice>2</voice>
        <type>eighth</type>
        <stem>down</stem>
        <beam number="1">end</beam>
        </note>
      </measure>
    <measure number="6" width="149.85">
      <note default-x="20.87" default-y="-30.00">
        <pitch>
          <step>G</step>
          <octave>4</octave>
          </pitch>
        <duration>8</duration>
        <voice>1</voice>
        <type>half</type>
        <stem>up</stem>
        <lyric number="1">
          <syllabic>single</syllabic>
          <text>yah!</text>
          </lyric>
        <lyric number="2">
          <syllabic>single</syllabic>
          <text>yah!</text>
          </lyric>
        <lyric number="3">
          <syllabic>single</syllabic>
          <text>yah!</text>
          </lyric>
        <lyric number="4">
          <syllabic>single</syllabic>
          <text>yah!</text>
          </lyric>
        </note>
      <note default-x="99.39" default-y="-35.00">
        <pitch>
          <step>F</step>
          <octave>4</octave>
          </pitch>
        <duration>4</duration>
        <voice>1</voice>
        <type>quarter</type>
        <stem>up</stem>
        <lyric number="1">
          <syllabic>single</syllabic>
          <text>Oh</text>
          </lyric>
        <lyric number="2">
          <syllabic>single</syllabic>
          <text>Oh</text>
          </lyric>
        <lyric number="3">
          <syllabic>single</syllabic>
          <text>Oh</text>
          </lyric>
        <lyric number="4">
          <syllabic>single</syllabic>
          <text>Oh</text>
          </lyric>
        </note>
      <backup>
        <duration>12</duration>
        </backup>
      <note default-x="20.87" default-y="-40.00">
        <pitch>
          <step>E</step>
          <octave>4</octave>
          </pitch>
        <duration>8</duration>
        <voice>2</voice>
        <type>half</type>
        <stem>down</stem>
        </note>
      <note default-x="99.39" default-y="-45.00">
        <pitch>
          <step>D</step>
          <octave>4</octave>
          </pitch>
        <duration>4</duration>
        <voice>2</voice>
        <type>quarter</type>
        <stem>down</stem>
        </note>
      </measure>
    <measure number="7" width="244.31">
      <note default-x="13.54" default-y="-40.00">
        <pitch>
          <step>E</step>
          <octave>4</octave>
          </pitch>
        <duration>6</duration>
        <voice>1</voice>
        <type>quarter</type>
        <dot/>
        <stem>up</stem>
        <lyric number="1">
          <syllabic>single</syllabic>
          <text>Lord</text>
          <extend/>
          </lyric>
        <lyric number="2">
          <syllabic>single</syllabic>
          <text>Lord</text>
          <extend/>
          </lyric>
        <lyric number="3">
          <syllabic>single</syllabic>
          <text>Lord</text>
          <extend/>
          </lyric>
        <lyric number="4">
          <syllabic>single</syllabic>
          <text>Lord</text>
          <extend/>
          </lyric>
        </note>
      <note default-x="103.84" default-y="-50.00">
        <pitch>
          <step>C</step>
          <octave>4</octave>
          </pitch>
        <duration>2</duration>
        <voice>1</voice>
        <type>eighth</type>
        <stem>up</stem>
        </note>
      <note default-x="150.13" default-y="-45.00">
        <pitch>
          <step>D</step>
          <octave>4</octave>
          </pitch>
        <duration>2</duration>
        <voice>1</voice>
        <type>eighth</type>
        <stem>up</stem>
        <beam number="1">begin</beam>
        <lyric number="1">
          <syllabic>single</syllabic>
          <text>Kum</text>
          </lyric>
        <lyric number="2">
          <syllabic>single</syllabic>
          <text>Kum</text>
          </lyric>
        <lyric number="3">
          <syllabic>single</syllabic>
          <text>Kum</text>
          </lyric>
        <lyric number="4">
          <syllabic>single</syllabic>
          <text>Kum</text>
          </lyric>
        </note>
      <note default-x="196.42" default-y="-45.00">
        <pitch>
          <step>D</step>
          <octave>4</octave>
          </pitch>
        <duration>2</duration>
        <voice>1</voice>
        <type>eighth</type>
        <stem>up</stem>
        <beam number="1">end</beam>
        <lyric number="1">
          <syllabic>single</syllabic>
          <text>bah</text>
          </lyric>
        <lyric number="2">
          <syllabic>single</syllabic>
          <text>bah</text>
          </lyric>
        <lyric number="3">
          <syllabic>single</syllabic>
          <text>bah</text>
          </lyric>
        <lyric number="4">
          <syllabic>single</syllabic>
          <text>bah</text>
          </lyric>
        </note>
      <backup>
        <duration>12</duration>
        </backup>
      <note default-x="13.54" default-y="-50.00">
        <pitch>
          <step>C</step>
          <octave>4</octave>
          </pitch>
        <duration>6</duration>
        <voice>2</voice>
        <type>quarter</type>
        <dot/>
        <stem>down</stem>
        </note>
      <note default-x="103.84" default-y="-50.00">
        <pitch>
          <step>C</step>
          <octave>4</octave>
          </pitch>
        <duration>2</duration>
        <voice>2</voice>
        <type>eighth</type>
        <stem>down</stem>
        </note>
      <note default-x="150.13" default-y="-55.00">
        <pitch>
          <step>B</step>
          <octave>3</octave>
          </pitch>
        <duration>2</duration>
        <voice>2</voice>
        <type>eighth</type>
        <stem>down</stem>
        <beam number="1">begin</beam>
        </note>
      <note default-x="196.42" default-y="-55.00">
        <pitch>
          <step>B</step>
          <octave>3</octave>
          </pitch>
        <duration>2</duration>
        <voice>2</voice>
        <type>eighth</type>
        <stem>down</stem>
        <beam number="1">end</beam>
        </note>
      </measure>
    <measure number="8" width="143.06">
      <note default-x="20.87" default-y="-50.00">
        <pitch>
          <step>C</step>
          <octave>4</octave>
          </pitch>
        <duration>8</duration>
        <voice>1</voice>
        <type>half</type>
        <stem>up</stem>
        <lyric number="1">
          <syllabic>single</syllabic>
          <text>yah!</text>
          </lyric>
        <lyric number="2">
          <syllabic>single</syllabic>
          <text>yah!</text>
          </lyric>
        <lyric number="3">
          <syllabic>single</syllabic>
          <text>yah!</text>
          </lyric>
        <lyric number="4">
          <syllabic>single</syllabic>
          <text>yah!</text>
          </lyric>
        </note>
      <note>
        <rest/>
        <duration>4</duration>
        <voice>1</voice>
        <type>quarter</type>
        </note>
      <backup>
        <duration>12</duration>
        </backup>
      <note default-x="20.87" default-y="-50.00">
        <pitch>
          <step>C</step>
          <octave>4</octave>
          </pitch>
        <duration>8</duration>
        <voice>2</voice>
        <type>half</type>
        <stem>down</stem>
        </note>
      <note>
        <rest/>
        <duration>4</duration>
        <voice>2</voice>
        <type>quarter</type>
        </note>
      <barline location="right">
        <bar-style>light-heavy</bar-style>
        </barline>
      </measure>
    </part>
  </score-partwise>
